<svg width="538" height="514" viewBox="0 0 538 514" fill="none" xmlns="http://www.w3.org/2000/svg">
<path fill-rule="evenodd" clip-rule="evenodd" d="M257.827 484.242C208.46 480.651 163.935 458.988 122.74 430.947C77.28 400.004 14.9589 371.101 9.66079 315.322C4.27504 258.62 65.5757 221.393 98.4646 175.377C121.517 143.123 138.994 106.275 173.014 86.7668C205.739 68.0018 244.761 78.1069 281.469 70.4387C336.731 58.8946 393.807 0.58026 441.899 30.5973C488.022 59.3853 459.506 135.987 472.638 189.759C485.564 242.688 532.493 289.873 518.062 342.475C503.448 395.747 448.574 425.223 400.921 451.183C356.626 475.313 307.777 487.875 257.827 484.242Z" fill="#BEE3F8"/>
<circle cx="88.0001" cy="161" r="9" stroke="#ED8936" stroke-width="2"/>
<circle cx="254" cy="496" r="9" stroke="#ED8936" stroke-width="2"/>
<circle cx="251" cy="288" r="9" stroke="#4299E1" stroke-width="2"/>
<circle cx="88.0001" cy="318" r="9" stroke="#4299E1" stroke-width="2"/>
<rect x="43.0001" y="271" width="15" height="15" fill="#ED8936"/>
<rect x="229" y="171" width="15" height="15" fill="#4299E1"/>
<rect x="126" y="499" width="15" height="15" fill="#4299E1"/>
</svg>
